<?xml version="1.0" encoding="UTF-8" standalone="no"?>
<!DOCTYPE svg PUBLIC "-//W3C//DTD SVG 1.1//EN"
 "http://www.w3.org/Graphics/SVG/1.1/DTD/svg11.dtd">
<!-- Generated by graphviz version 2.43.0 (0)
 -->
<!-- Title: sourcetree Pages: 1 -->
<svg width="459pt" height="638pt"
 viewBox="0.00 0.00 459.00 638.00" xmlns="http://www.w3.org/2000/svg" xmlns:xlink="http://www.w3.org/1999/xlink">
<g id="graph0" class="graph" transform="scale(1 1) rotate(0) translate(4 634)">
<title>sourcetree</title>
<polygon fill="white" stroke="transparent" points="-4,4 -4,-634 455,-634 455,4 -4,4"/>
<!-- MulleFoundationBase -->
<g id="node1" class="node">
<title>MulleFoundationBase</title>
<polygon fill="yellow" stroke="black" points="172,-333 0,-333 0,-297 172,-297 172,-333"/>
<text text-anchor="middle" x="86" y="-311.3" font-family="Times,serif" font-size="14.00">MulleFoundationBase</text>
</g>
<!-- MulleObjC -->
<g id="node2" class="node">
<title>MulleObjC</title>
<g id="a_node2"><a xlink:href="https://github.com/mulle-objc/MulleObjC" xlink:title="MulleObjC">
<polygon fill="lightgrey" stroke="black" points="375.5,-630 283.5,-630 283.5,-594 375.5,-594 375.5,-630"/>
<text text-anchor="middle" x="329.5" y="-608.3" font-family="Times,serif" font-size="14.00">MulleObjC</text>
</a>
</g>
</g>
<!-- MulleFoundationBase&#45;&gt;MulleObjC -->
<g id="edge1" class="edge">
<title>MulleFoundationBase&#45;&gt;MulleObjC</title>
<path fill="none" stroke="black" d="M89.5,-333.14C97.23,-382.06 125.45,-517.57 208,-585 226.21,-599.88 250.94,-606.96 273.26,-610.2"/>
<polygon fill="black" stroke="black" points="272.96,-613.69 283.31,-611.43 273.81,-606.74 272.96,-613.69"/>
</g>
<!-- MulleObjCArchiverFoundation -->
<g id="node3" class="node">
<title>MulleObjCArchiverFoundation</title>
<g id="a_node3"><a xlink:href="https://github.com/MulleFoundation/MulleObjCArchiverFoundation@*" xlink:title="MulleObjCArchiverFoundation">
<polygon fill="lightgrey" stroke="black" points="446,-576 213,-576 213,-540 446,-540 446,-576"/>
<text text-anchor="middle" x="329.5" y="-554.3" font-family="Times,serif" font-size="14.00">MulleObjCArchiverFoundation</text>
</a>
</g>
</g>
<!-- MulleFoundationBase&#45;&gt;MulleObjCArchiverFoundation -->
<g id="edge2" class="edge">
<title>MulleFoundationBase&#45;&gt;MulleObjCArchiverFoundation</title>
<path fill="none" stroke="black" d="M91.67,-333.17C103.46,-375.15 138.55,-479.26 208,-531 209.85,-532.38 211.76,-533.69 213.72,-534.94"/>
<polygon fill="black" stroke="black" points="212.17,-538.08 222.59,-539.99 215.64,-532 212.17,-538.08"/>
</g>
<!-- MulleObjCContainerFoundation -->
<g id="node4" class="node">
<title>MulleObjCContainerFoundation</title>
<g id="a_node4"><a xlink:href="https://github.com/MulleFoundation/MulleObjCContainerFoundation@*" xlink:title="MulleObjCContainerFoundation">
<polygon fill="lightgrey" stroke="black" points="451,-522 208,-522 208,-486 451,-486 451,-522"/>
<text text-anchor="middle" x="329.5" y="-500.3" font-family="Times,serif" font-size="14.00">MulleObjCContainerFoundation</text>
</a>
</g>
</g>
<!-- MulleFoundationBase&#45;&gt;MulleObjCContainerFoundation -->
<g id="edge3" class="edge">
<title>MulleFoundationBase&#45;&gt;MulleObjCContainerFoundation</title>
<path fill="none" stroke="black" d="M95.17,-333.18C111.45,-367.17 151.29,-440.26 208,-477 210.45,-478.58 212.97,-480.08 215.56,-481.48"/>
<polygon fill="black" stroke="black" points="214.08,-484.65 224.6,-485.93 217.17,-478.37 214.08,-484.65"/>
</g>
<!-- MulleObjCKVCFoundation -->
<g id="node5" class="node">
<title>MulleObjCKVCFoundation</title>
<g id="a_node5"><a xlink:href="https://github.com/MulleFoundation/MulleObjCKVCFoundation@*" xlink:title="MulleObjCKVCFoundation">
<polygon fill="lightgrey" stroke="black" points="431,-468 228,-468 228,-432 431,-432 431,-468"/>
<text text-anchor="middle" x="329.5" y="-446.3" font-family="Times,serif" font-size="14.00">MulleObjCKVCFoundation</text>
</a>
</g>
</g>
<!-- MulleFoundationBase&#45;&gt;MulleObjCKVCFoundation -->
<g id="edge4" class="edge">
<title>MulleFoundationBase&#45;&gt;MulleObjCKVCFoundation</title>
<path fill="none" stroke="black" d="M101.79,-333C122.8,-357.32 163.67,-400.23 208,-423 211.6,-424.85 215.32,-426.57 219.13,-428.18"/>
<polygon fill="black" stroke="black" points="218.16,-431.56 228.75,-431.93 220.71,-425.03 218.16,-431.56"/>
</g>
<!-- MulleObjCLockFoundation -->
<g id="node6" class="node">
<title>MulleObjCLockFoundation</title>
<g id="a_node6"><a xlink:href="https://github.com/MulleFoundation/MulleObjCLockFoundation@*" xlink:title="MulleObjCLockFoundation">
<polygon fill="lightgrey" stroke="black" points="432.5,-414 226.5,-414 226.5,-378 432.5,-378 432.5,-414"/>
<text text-anchor="middle" x="329.5" y="-392.3" font-family="Times,serif" font-size="14.00">MulleObjCLockFoundation</text>
</a>
</g>
</g>
<!-- MulleFoundationBase&#45;&gt;MulleObjCLockFoundation -->
<g id="edge5" class="edge">
<title>MulleFoundationBase&#45;&gt;MulleObjCLockFoundation</title>
<path fill="none" stroke="black" d="M122.52,-333.11C146.25,-344.64 178.41,-359.19 208,-369 214.79,-371.25 221.85,-373.37 229,-375.36"/>
<polygon fill="black" stroke="black" points="228.22,-378.78 238.79,-377.99 230.04,-372.01 228.22,-378.78"/>
</g>
<!-- MulleObjCMathFoundation -->
<g id="node7" class="node">
<title>MulleObjCMathFoundation</title>
<g id="a_node7"><a xlink:href="https://github.com/MulleFoundation/MulleObjCMathFoundation@*" xlink:title="MulleObjCMathFoundation">
<polygon fill="lightgrey" stroke="black" points="434.5,-360 224.5,-360 224.5,-324 434.5,-324 434.5,-360"/>
<text text-anchor="middle" x="329.5" y="-338.3" font-family="Times,serif" font-size="14.00">MulleObjCMathFoundation</text>
</a>
</g>
</g>
<!-- MulleFoundationBase&#45;&gt;MulleObjCMathFoundation -->
<g id="edge6" class="edge">
<title>MulleFoundationBase&#45;&gt;MulleObjCMathFoundation</title>
<path fill="none" stroke="black" d="M172.14,-324.52C185.69,-326.03 199.9,-327.62 213.99,-329.2"/>
<polygon fill="black" stroke="black" points="213.9,-332.71 224.23,-330.34 214.68,-325.75 213.9,-332.71"/>
</g>
<!-- MulleObjCPlistFoundation -->
<g id="node8" class="node">
<title>MulleObjCPlistFoundation</title>
<g id="a_node8"><a xlink:href="https://github.com/MulleFoundation/MulleObjCPlistFoundation@*" xlink:title="MulleObjCPlistFoundation">
<polygon fill="lightgrey" stroke="black" points="432,-306 227,-306 227,-270 432,-270 432,-306"/>
<text text-anchor="middle" x="329.5" y="-284.3" font-family="Times,serif" font-size="14.00">MulleObjCPlistFoundation</text>
</a>
</g>
</g>
<!-- MulleFoundationBase&#45;&gt;MulleObjCPlistFoundation -->
<g id="edge7" class="edge">
<title>MulleFoundationBase&#45;&gt;MulleObjCPlistFoundation</title>
<path fill="none" stroke="black" d="M172.14,-305.48C186.49,-303.88 201.57,-302.19 216.47,-300.53"/>
<polygon fill="black" stroke="black" points="217.2,-303.97 226.75,-299.38 216.42,-297.01 217.2,-303.97"/>
</g>
<!-- MulleObjCStandardFoundation -->
<g id="node9" class="node">
<title>MulleObjCStandardFoundation</title>
<g id="a_node9"><a xlink:href="https://github.com/MulleFoundation/MulleObjCStandardFoundation@*" xlink:title="MulleObjCStandardFoundation">
<polygon fill="lightgrey" stroke="black" points="449,-252 210,-252 210,-216 449,-216 449,-252"/>
<text text-anchor="middle" x="329.5" y="-230.3" font-family="Times,serif" font-size="14.00">MulleObjCStandardFoundation</text>
</a>
</g>
</g>
<!-- MulleFoundationBase&#45;&gt;MulleObjCStandardFoundation -->
<g id="edge8" class="edge">
<title>MulleFoundationBase&#45;&gt;MulleObjCStandardFoundation</title>
<path fill="none" stroke="black" d="M122.52,-296.89C146.25,-285.36 178.41,-270.81 208,-261 214.79,-258.75 221.85,-256.63 229,-254.64"/>
<polygon fill="black" stroke="black" points="230.04,-257.99 238.79,-252.01 228.22,-251.22 230.04,-257.99"/>
</g>
<!-- MulleObjCTimeFoundation -->
<g id="node10" class="node">
<title>MulleObjCTimeFoundation</title>
<g id="a_node10"><a xlink:href="https://github.com/MulleFoundation/MulleObjCTimeFoundation@*" xlink:title="MulleObjCTimeFoundation">
<polygon fill="lightgrey" stroke="black" points="433.5,-198 225.5,-198 225.5,-162 433.5,-162 433.5,-198"/>
<text text-anchor="middle" x="329.5" y="-176.3" font-family="Times,serif" font-size="14.00">MulleObjCTimeFoundation</text>
</a>
</g>
</g>
<!-- MulleFoundationBase&#45;&gt;MulleObjCTimeFoundation -->
<g id="edge9" class="edge">
<title>MulleFoundationBase&#45;&gt;MulleObjCTimeFoundation</title>
<path fill="none" stroke="black" d="M101.79,-297C122.8,-272.68 163.67,-229.77 208,-207 211.6,-205.15 215.32,-203.43 219.13,-201.82"/>
<polygon fill="black" stroke="black" points="220.71,-204.97 228.75,-198.07 218.16,-198.44 220.71,-204.97"/>
</g>
<!-- MulleObjCUnicodeFoundation -->
<g id="node11" class="node">
<title>MulleObjCUnicodeFoundation</title>
<g id="a_node11"><a xlink:href="https://github.com/MulleFoundation/MulleObjCUnicodeFoundation@*" xlink:title="MulleObjCUnicodeFoundation">
<polygon fill="lightgrey" stroke="black" points="445,-144 214,-144 214,-108 445,-108 445,-144"/>
<text text-anchor="middle" x="329.5" y="-122.3" font-family="Times,serif" font-size="14.00">MulleObjCUnicodeFoundation</text>
</a>
</g>
</g>
<!-- MulleFoundationBase&#45;&gt;MulleObjCUnicodeFoundation -->
<g id="edge10" class="edge">
<title>MulleFoundationBase&#45;&gt;MulleObjCUnicodeFoundation</title>
<path fill="none" stroke="black" d="M95.17,-296.82C111.45,-262.83 151.29,-189.74 208,-153 210.45,-151.42 212.97,-149.92 215.56,-148.52"/>
<polygon fill="black" stroke="black" points="217.17,-151.63 224.6,-144.07 214.08,-145.35 217.17,-151.63"/>
</g>
<!-- MulleObjCUUIDFoundation -->
<g id="node12" class="node">
<title>MulleObjCUUIDFoundation</title>
<g id="a_node12"><a xlink:href="https://github.com/MulleFoundation/MulleObjCUUIDFoundation@*" xlink:title="MulleObjCUUIDFoundation">
<polygon fill="lightgrey" stroke="black" points="436,-90 223,-90 223,-54 436,-54 436,-90"/>
<text text-anchor="middle" x="329.5" y="-68.3" font-family="Times,serif" font-size="14.00">MulleObjCUUIDFoundation</text>
</a>
</g>
</g>
<!-- MulleFoundationBase&#45;&gt;MulleObjCUUIDFoundation -->
<g id="edge11" class="edge">
<title>MulleFoundationBase&#45;&gt;MulleObjCUUIDFoundation</title>
<path fill="none" stroke="black" d="M91.67,-296.83C103.46,-254.85 138.55,-150.74 208,-99 209.89,-97.6 211.83,-96.26 213.83,-94.99"/>
<polygon fill="black" stroke="black" points="215.91,-97.84 222.88,-89.86 212.46,-91.75 215.91,-97.84"/>
</g>
<!-- MulleObjCValueFoundation -->
<g id="node13" class="node">
<title>MulleObjCValueFoundation</title>
<g id="a_node13"><a xlink:href="https://github.com/MulleFoundation/MulleObjCValueFoundation@*" xlink:title="MulleObjCValueFoundation">
<polygon fill="lightgrey" stroke="black" points="435.5,-36 223.5,-36 223.5,0 435.5,0 435.5,-36"/>
<text text-anchor="middle" x="329.5" y="-14.3" font-family="Times,serif" font-size="14.00">MulleObjCValueFoundation</text>
</a>
</g>
</g>
<!-- MulleFoundationBase&#45;&gt;MulleObjCValueFoundation -->
<g id="edge12" class="edge">
<title>MulleFoundationBase&#45;&gt;MulleObjCValueFoundation</title>
<path fill="none" stroke="black" d="M89.5,-296.86C97.23,-247.94 125.45,-112.43 208,-45 210.07,-43.31 212.22,-41.72 214.45,-40.22"/>
<polygon fill="black" stroke="black" points="216.56,-43.04 223.36,-34.91 212.98,-37.03 216.56,-43.04"/>
</g>
</g>
</svg>
