<?xml version="1.0" encoding="UTF-8" standalone="no"?>
<!DOCTYPE svg PUBLIC "-//W3C//DTD SVG 1.1//EN"
 "http://www.w3.org/Graphics/SVG/1.1/DTD/svg11.dtd">
<!-- Generated by graphviz version 2.43.0 (0)
 -->
<!-- Title: sourcetree Pages: 1 -->
<svg width="459pt" height="692pt"
 viewBox="0.00 0.00 459.00 692.00" xmlns="http://www.w3.org/2000/svg" xmlns:xlink="http://www.w3.org/1999/xlink">
<g id="graph0" class="graph" transform="scale(1 1) rotate(0) translate(4 688)">
<title>sourcetree</title>
<polygon fill="white" stroke="transparent" points="-4,4 -4,-688 455,-688 455,4 -4,4"/>
<!-- MulleFoundationBase -->
<g id="node1" class="node">
<title>MulleFoundationBase</title>
<polygon fill="yellow" stroke="black" points="172,-360 0,-360 0,-324 172,-324 172,-360"/>
<text text-anchor="middle" x="86" y="-338.3" font-family="Times,serif" font-size="14.00">MulleFoundationBase</text>
</g>
<!-- MulleObjC -->
<g id="node2" class="node">
<title>MulleObjC</title>
<g id="a_node2"><a xlink:href="https://github.com/mulle-objc/MulleObjC" xlink:title="MulleObjC">
<polygon fill="lightgrey" stroke="black" points="375.5,-684 283.5,-684 283.5,-648 375.5,-648 375.5,-684"/>
<text text-anchor="middle" x="329.5" y="-662.3" font-family="Times,serif" font-size="14.00">MulleObjC</text>
</a>
</g>
</g>
<!-- MulleFoundationBase&#45;&gt;MulleObjC -->
<g id="edge1" class="edge">
<title>MulleFoundationBase&#45;&gt;MulleObjC</title>
<path fill="none" stroke="black" d="M88.67,-360.01C94.5,-412.01 118.74,-563.48 208,-639 226.03,-654.25 250.84,-661.38 273.27,-664.55"/>
<polygon fill="black" stroke="black" points="273.04,-668.04 283.38,-665.74 273.86,-661.09 273.04,-668.04"/>
</g>
<!-- MulleObjCArchiverFoundation -->
<g id="node3" class="node">
<title>MulleObjCArchiverFoundation</title>
<g id="a_node3"><a xlink:href="https://github.com/MulleFoundation/MulleObjCArchiverFoundation@*" xlink:title="MulleObjCArchiverFoundation">
<polygon fill="lightgrey" stroke="black" points="446,-630 213,-630 213,-594 446,-594 446,-630"/>
<text text-anchor="middle" x="329.5" y="-608.3" font-family="Times,serif" font-size="14.00">MulleObjCArchiverFoundation</text>
</a>
</g>
</g>
<!-- MulleFoundationBase&#45;&gt;MulleObjCArchiverFoundation -->
<g id="edge2" class="edge">
<title>MulleFoundationBase&#45;&gt;MulleObjCArchiverFoundation</title>
<path fill="none" stroke="black" d="M90.51,-360.33C100.26,-406.02 132.14,-525.56 208,-585 209.61,-586.26 211.28,-587.47 212.98,-588.63"/>
<polygon fill="black" stroke="black" points="211.44,-591.79 221.81,-593.95 215.06,-585.79 211.44,-591.79"/>
</g>
<!-- MulleObjCContainerFoundation -->
<g id="node4" class="node">
<title>MulleObjCContainerFoundation</title>
<g id="a_node4"><a xlink:href="https://github.com/MulleFoundation/MulleObjCContainerFoundation@*" xlink:title="MulleObjCContainerFoundation">
<polygon fill="lightgrey" stroke="black" points="451,-576 208,-576 208,-540 451,-540 451,-576"/>
<text text-anchor="middle" x="329.5" y="-554.3" font-family="Times,serif" font-size="14.00">MulleObjCContainerFoundation</text>
</a>
</g>
</g>
<!-- MulleFoundationBase&#45;&gt;MulleObjCContainerFoundation -->
<g id="edge3" class="edge">
<title>MulleFoundationBase&#45;&gt;MulleObjCContainerFoundation</title>
<path fill="none" stroke="black" d="M93.19,-360.18C107.17,-398.34 144.97,-486.86 208,-531 210.11,-532.48 212.29,-533.88 214.53,-535.2"/>
<polygon fill="black" stroke="black" points="212.95,-538.33 223.42,-539.95 216.24,-532.15 212.95,-538.33"/>
</g>
<!-- MulleObjCKVCFoundation -->
<g id="node5" class="node">
<title>MulleObjCKVCFoundation</title>
<g id="a_node5"><a xlink:href="https://github.com/MulleFoundation/MulleObjCKVCFoundation@*" xlink:title="MulleObjCKVCFoundation">
<polygon fill="lightgrey" stroke="black" points="431,-522 228,-522 228,-486 431,-486 431,-522"/>
<text text-anchor="middle" x="329.5" y="-500.3" font-family="Times,serif" font-size="14.00">MulleObjCKVCFoundation</text>
</a>
</g>
</g>
<!-- MulleFoundationBase&#45;&gt;MulleObjCKVCFoundation -->
<g id="edge4" class="edge">
<title>MulleFoundationBase&#45;&gt;MulleObjCKVCFoundation</title>
<path fill="none" stroke="black" d="M97.87,-360.12C116.51,-389.54 157.5,-447.39 208,-477 211.44,-479.02 215.01,-480.88 218.69,-482.61"/>
<polygon fill="black" stroke="black" points="217.43,-485.88 228,-486.62 220.2,-479.45 217.43,-485.88"/>
</g>
<!-- MulleObjCLockFoundation -->
<g id="node6" class="node">
<title>MulleObjCLockFoundation</title>
<g id="a_node6"><a xlink:href="https://github.com/MulleFoundation/MulleObjCLockFoundation@*" xlink:title="MulleObjCLockFoundation">
<polygon fill="lightgrey" stroke="black" points="432.5,-468 226.5,-468 226.5,-432 432.5,-432 432.5,-468"/>
<text text-anchor="middle" x="329.5" y="-446.3" font-family="Times,serif" font-size="14.00">MulleObjCLockFoundation</text>
</a>
</g>
</g>
<!-- MulleFoundationBase&#45;&gt;MulleObjCLockFoundation -->
<g id="edge5" class="edge">
<title>MulleFoundationBase&#45;&gt;MulleObjCLockFoundation</title>
<path fill="none" stroke="black" d="M108.74,-360.21C131.91,-378.71 170.36,-406.86 208,-423 212.8,-425.06 217.78,-426.97 222.86,-428.75"/>
<polygon fill="black" stroke="black" points="222.15,-432.19 232.74,-431.99 224.33,-425.54 222.15,-432.19"/>
</g>
<!-- MulleObjCMathFoundation -->
<g id="node7" class="node">
<title>MulleObjCMathFoundation</title>
<g id="a_node7"><a xlink:href="https://github.com/MulleFoundation/MulleObjCMathFoundation@*" xlink:title="MulleObjCMathFoundation">
<polygon fill="lightgrey" stroke="black" points="434.5,-414 224.5,-414 224.5,-378 434.5,-378 434.5,-414"/>
<text text-anchor="middle" x="329.5" y="-392.3" font-family="Times,serif" font-size="14.00">MulleObjCMathFoundation</text>
</a>
</g>
</g>
<!-- MulleFoundationBase&#45;&gt;MulleObjCMathFoundation -->
<g id="edge6" class="edge">
<title>MulleFoundationBase&#45;&gt;MulleObjCMathFoundation</title>
<path fill="none" stroke="black" d="M167.75,-360.06C190.31,-365.1 214.96,-370.61 238.04,-375.77"/>
<polygon fill="black" stroke="black" points="237.3,-379.19 247.82,-377.96 238.83,-372.36 237.3,-379.19"/>
</g>
<!-- MulleObjCPlistFoundation -->
<g id="node8" class="node">
<title>MulleObjCPlistFoundation</title>
<g id="a_node8"><a xlink:href="https://github.com/MulleFoundation/MulleObjCPlistFoundation@*" xlink:title="MulleObjCPlistFoundation">
<polygon fill="lightgrey" stroke="black" points="432,-360 227,-360 227,-324 432,-324 432,-360"/>
<text text-anchor="middle" x="329.5" y="-338.3" font-family="Times,serif" font-size="14.00">MulleObjCPlistFoundation</text>
</a>
</g>
</g>
<!-- MulleFoundationBase&#45;&gt;MulleObjCPlistFoundation -->
<g id="edge7" class="edge">
<title>MulleFoundationBase&#45;&gt;MulleObjCPlistFoundation</title>
<path fill="none" stroke="black" d="M172.14,-342C186.49,-342 201.57,-342 216.47,-342"/>
<polygon fill="black" stroke="black" points="216.75,-345.5 226.75,-342 216.75,-338.5 216.75,-345.5"/>
</g>
<!-- MulleObjCRegexFoundation -->
<g id="node9" class="node">
<title>MulleObjCRegexFoundation</title>
<g id="a_node9"><a xlink:href="https://github.com/MulleFoundation/MulleObjCRegexFoundation" xlink:title="MulleObjCRegexFoundation">
<polygon fill="lightgrey" stroke="black" points="438,-306 221,-306 221,-270 438,-270 438,-306"/>
<text text-anchor="middle" x="329.5" y="-284.3" font-family="Times,serif" font-size="14.00">MulleObjCRegexFoundation</text>
</a>
</g>
</g>
<!-- MulleFoundationBase&#45;&gt;MulleObjCRegexFoundation -->
<g id="edge8" class="edge">
<title>MulleFoundationBase&#45;&gt;MulleObjCRegexFoundation</title>
<path fill="none" stroke="black" d="M167.75,-323.94C190.31,-318.9 214.96,-313.39 238.04,-308.23"/>
<polygon fill="black" stroke="black" points="238.83,-311.64 247.82,-306.04 237.3,-304.81 238.83,-311.64"/>
</g>
<!-- MulleObjCStandardFoundation -->
<g id="node10" class="node">
<title>MulleObjCStandardFoundation</title>
<g id="a_node10"><a xlink:href="https://github.com/MulleFoundation/MulleObjCStandardFoundation@*" xlink:title="MulleObjCStandardFoundation">
<polygon fill="lightgrey" stroke="black" points="449,-252 210,-252 210,-216 449,-216 449,-252"/>
<text text-anchor="middle" x="329.5" y="-230.3" font-family="Times,serif" font-size="14.00">MulleObjCStandardFoundation</text>
</a>
</g>
</g>
<!-- MulleFoundationBase&#45;&gt;MulleObjCStandardFoundation -->
<g id="edge9" class="edge">
<title>MulleFoundationBase&#45;&gt;MulleObjCStandardFoundation</title>
<path fill="none" stroke="black" d="M108.74,-323.79C131.91,-305.29 170.36,-277.14 208,-261 212.8,-258.94 217.78,-257.03 222.86,-255.25"/>
<polygon fill="black" stroke="black" points="224.33,-258.46 232.74,-252.01 222.15,-251.81 224.33,-258.46"/>
</g>
<!-- MulleObjCTimeFoundation -->
<g id="node11" class="node">
<title>MulleObjCTimeFoundation</title>
<g id="a_node11"><a xlink:href="https://github.com/MulleFoundation/MulleObjCTimeFoundation@*" xlink:title="MulleObjCTimeFoundation">
<polygon fill="lightgrey" stroke="black" points="433.5,-198 225.5,-198 225.5,-162 433.5,-162 433.5,-198"/>
<text text-anchor="middle" x="329.5" y="-176.3" font-family="Times,serif" font-size="14.00">MulleObjCTimeFoundation</text>
</a>
</g>
</g>
<!-- MulleFoundationBase&#45;&gt;MulleObjCTimeFoundation -->
<g id="edge10" class="edge">
<title>MulleFoundationBase&#45;&gt;MulleObjCTimeFoundation</title>
<path fill="none" stroke="black" d="M97.87,-323.88C116.51,-294.46 157.5,-236.61 208,-207 210.87,-205.32 213.83,-203.74 216.86,-202.27"/>
<polygon fill="black" stroke="black" points="218.45,-205.39 226.16,-198.12 215.6,-199 218.45,-205.39"/>
</g>
<!-- MulleObjCUnicodeFoundation -->
<g id="node12" class="node">
<title>MulleObjCUnicodeFoundation</title>
<g id="a_node12"><a xlink:href="https://github.com/MulleFoundation/MulleObjCUnicodeFoundation@*" xlink:title="MulleObjCUnicodeFoundation">
<polygon fill="lightgrey" stroke="black" points="445,-144 214,-144 214,-108 445,-108 445,-144"/>
<text text-anchor="middle" x="329.5" y="-122.3" font-family="Times,serif" font-size="14.00">MulleObjCUnicodeFoundation</text>
</a>
</g>
</g>
<!-- MulleFoundationBase&#45;&gt;MulleObjCUnicodeFoundation -->
<g id="edge11" class="edge">
<title>MulleFoundationBase&#45;&gt;MulleObjCUnicodeFoundation</title>
<path fill="none" stroke="black" d="M93.19,-323.82C107.17,-285.66 144.97,-197.14 208,-153 210.11,-151.52 212.29,-150.12 214.53,-148.8"/>
<polygon fill="black" stroke="black" points="216.24,-151.85 223.42,-144.05 212.95,-145.67 216.24,-151.85"/>
</g>
<!-- MulleObjCUUIDFoundation -->
<g id="node13" class="node">
<title>MulleObjCUUIDFoundation</title>
<g id="a_node13"><a xlink:href="https://github.com/MulleFoundation/MulleObjCUUIDFoundation@*" xlink:title="MulleObjCUUIDFoundation">
<polygon fill="lightgrey" stroke="black" points="436,-90 223,-90 223,-54 436,-54 436,-90"/>
<text text-anchor="middle" x="329.5" y="-68.3" font-family="Times,serif" font-size="14.00">MulleObjCUUIDFoundation</text>
</a>
</g>
</g>
<!-- MulleFoundationBase&#45;&gt;MulleObjCUUIDFoundation -->
<g id="edge12" class="edge">
<title>MulleFoundationBase&#45;&gt;MulleObjCUUIDFoundation</title>
<path fill="none" stroke="black" d="M90.51,-323.67C100.26,-277.98 132.14,-158.44 208,-99 210.03,-97.41 212.14,-95.91 214.31,-94.49"/>
<polygon fill="black" stroke="black" points="216.09,-97.5 222.96,-89.44 212.56,-91.46 216.09,-97.5"/>
</g>
<!-- MulleObjCValueFoundation -->
<g id="node14" class="node">
<title>MulleObjCValueFoundation</title>
<g id="a_node14"><a xlink:href="https://github.com/MulleFoundation/MulleObjCValueFoundation@*" xlink:title="MulleObjCValueFoundation">
<polygon fill="lightgrey" stroke="black" points="435.5,-36 223.5,-36 223.5,0 435.5,0 435.5,-36"/>
<text text-anchor="middle" x="329.5" y="-14.3" font-family="Times,serif" font-size="14.00">MulleObjCValueFoundation</text>
</a>
</g>
</g>
<!-- MulleFoundationBase&#45;&gt;MulleObjCValueFoundation -->
<g id="edge13" class="edge">
<title>MulleFoundationBase&#45;&gt;MulleObjCValueFoundation</title>
<path fill="none" stroke="black" d="M88.67,-323.99C94.5,-271.99 118.74,-120.52 208,-45 210.08,-43.24 212.24,-41.59 214.49,-40.05"/>
<polygon fill="black" stroke="black" points="216.76,-42.76 223.48,-34.57 213.12,-36.78 216.76,-42.76"/>
</g>
</g>
</svg>
